#N canvas 965 62 544 503 12;
#X declare -path Fraise;
#X obj 25 91 sel 1;
#X msg 25 116 V;
#X obj 25 46 wifruit fruit1 192.168.11.2;
#X obj 24 5 declare -path Fraise;
#X obj 23 224 fruit/send fruit1;
#X obj 23 252 fruit/receive fruit1;
#X listbox 23 328 40 0 0 0 - - - 0;
#X obj 23 303 list;
#X obj 205 277 print from_fruit;
#X obj 23 350 bng 20 250 50 0 empty empty empty 0 -10 0 12 #fcfcfc #000000 #000000;
#X msg 232 163 2;
#X text 263 164 get pwm;
#X msg 233 192 10;
#X text 264 193 get encoder;
#X obj 23 277 route V end_low end_high;
#X obj 78 303 tgl 20 0 empty empty empty 0 -10 0 12 #000000 #ff0400 #000000 0 1;
#X obj 133 303 tgl 20 0 empty empty empty 0 -10 0 12 #000000 #ff0400 #000000 0 1;
#X msg 232 132 1 i \$1 i \$2;
#X obj 235 51 hsl 170 20 -1 1 0 0 empty empty empty -2 -10 0 12 #fcfcfc #000000 #000000 0 1;
#X obj 232 76 * 32767;
#X obj 232 104 pack f 1000;
#X text 320 104 pwm[-32767-32767] ramp(ms);
#X floatatom 301 75 5 0 0 0 - - - 0;
#X floatatom 188 410 8 0 0 0 - - - 0;
#X listbox 256 409 20 0 0 0 - - - 0;
#X obj 188 385 route pwm m, f 20;
#X obj 188 360 route l;
#X msg 232 27 0;
#X connect 0 0 1 0;
#X connect 1 0 4 1;
#X connect 2 0 0 0;
#X connect 5 0 14 0;
#X connect 6 0 9 0;
#X connect 7 0 6 0;
#X connect 10 0 4 0;
#X connect 12 0 4 0;
#X connect 14 0 7 0;
#X connect 14 1 15 0;
#X connect 14 2 16 0;
#X connect 14 3 8 0;
#X connect 14 3 26 0;
#X connect 17 0 4 0;
#X connect 18 0 19 0;
#X connect 19 0 20 0;
#X connect 19 0 22 0;
#X connect 20 0 17 0;
#X connect 25 0 23 0;
#X connect 25 1 24 0;
#X connect 26 0 25 0;
#X connect 27 0 18 0;
