#N canvas 140 474 692 523 12;
#X obj 167 293 tgl 20 0 empty empty empty 0 -10 0 12 #fcfcfc #000000 #000000 0 1;
#X msg 240 179 disconnect;
#X obj 167 268 netsend -u -b;
#X obj 16 278 t f f, f 7;
#X obj 16 303 >> 8;
#X obj 16 328 pack f f;
#X obj 16 353 list prepend 2 0;
#X obj 62 303 & 255;
#X obj 88 110 list prepend 1;
#X obj 88 85 fudiformat -u;
#X msg 16 253 4444;
#X obj 285 329 fudiparse;
#X msg 61 253 5454;
#X msg 101 251 0;
#X obj 58 165 list prepend 0;
#X obj 88 61 r Fraise-\$1-C-rcv;
#X obj 58 138 r Fraise-\$1-rcv;
#X obj 255 357 s Fraise-\$1-snd;
#X obj 24 391 loadbang;
#X obj 189 103 bng 20 250 50 0 empty empty empty 0 -10 0 12 #fcfcfc #000000 #000000;
#X obj 22 203 r Fraise-\$1-RAW-rcv;
#X obj 518 334 s Fraise-\$1-RAW-rcv;
#X msg 518 303 2 1;
#X text 550 304 ping;
#X obj 508 221 metro 2000;
#X obj 11 29 tgl 20 0 \$0-on-snd \$0-on-rcv empty 0 -10 0 12 #fcfcfc #000000 #000000 0 1;
#X obj 451 284 del 1500;
#X msg 451 357 0;
#X msg 395 357 1;
#X obj 425 411 sel 0 1;
#X obj 32 29 cnv 20 148 20 empty \$0-can ip:192.168.11.2 10 12 0 12 #e8e828 #000000 0;
#X obj 425 487 s \$0-can;
#X msg 448 436 color 15 22 22;
#X msg 451 259 stop;
#X obj 255 300 route 0 1 2 3, f 18;
#X obj 333 395 unpack f f;
#X obj 333 420 * 256;
#X obj 333 445 +;
#X floatatom 333 470 5 0 0 3 retport - - 0;
#X obj 357 331 route 0 1;
#X msg 504 384 present \$1;
#X obj 175 394 s Fraise-\$1-RAW-snd;
#X msg 24 420 1;
#X obj 24 447 s \$0-on-rcv;
#X obj 263 13 r \$0-on-snd;
#X obj 217 71 sel 1 0;
#X text 82 333 (set return port);
#X obj 456 39 inlet;
#X obj 456 64 route on ip;
#X obj 456 89 s \$0-on-rcv;
#X obj 217 99 symbol \$2;
#X obj 493 121 route bang;
#X obj 493 146 symbol \$2;
#X obj 493 171 t a;
#X msg 425 462 color 10 22 11;
#X obj 339 208 s \$0-can;
#X msg 339 183 label ip:\$1;
#X obj 167 238 spigot;
#X obj 263 39 t f f f;
#X obj 129 480 outlet;
#X obj 267 481 bng 20 250 50 0 empty empty empty 0 -10 0 12 #fcfcfc #000000 #000000;
#X obj 211 302 bng 20 250 50 0 empty empty empty 0 -10 0 12 #fcfcfc #000000 #000000;
#X msg 52 62 V;
#X obj 425 386 change -1;
#X obj 217 126 pack s \$3;
#X msg 86 278 5555;
#X msg 217 152 disconnect \, connect \$1 4343;
#X obj 330 241 s \$1-ip;
#X text 374 10 wifruit FRUIT_NAME IP_ADRESS;
#X connect 1 0 2 0;
#X connect 2 0 0 0;
#X connect 2 1 34 0;
#X connect 2 1 41 0;
#X connect 2 1 61 0;
#X connect 3 0 4 0;
#X connect 3 1 7 0;
#X connect 4 0 5 0;
#X connect 5 0 6 0;
#X connect 6 0 2 0;
#X connect 7 0 5 1;
#X connect 8 0 57 0;
#X connect 9 0 8 0;
#X connect 10 0 3 0;
#X connect 11 0 17 0;
#X connect 12 0 3 0;
#X connect 13 0 3 0;
#X connect 14 0 57 0;
#X connect 15 0 9 0;
#X connect 16 0 14 0;
#X connect 18 0 42 0;
#X connect 19 0 50 0;
#X connect 20 0 57 0;
#X connect 22 0 21 0;
#X connect 24 0 22 0;
#X connect 24 0 26 0;
#X connect 26 0 27 0;
#X connect 26 0 50 0;
#X connect 27 0 63 0;
#X connect 28 0 33 0;
#X connect 28 0 63 0;
#X connect 29 0 54 0;
#X connect 29 1 32 0;
#X connect 32 0 31 0;
#X connect 33 0 26 0;
#X connect 34 0 17 0;
#X connect 34 1 11 0;
#X connect 34 2 39 0;
#X connect 34 2 60 0;
#X connect 35 0 36 0;
#X connect 35 1 37 1;
#X connect 36 0 37 0;
#X connect 37 0 38 0;
#X connect 39 0 35 0;
#X connect 39 1 28 0;
#X connect 40 0 17 0;
#X connect 42 0 43 0;
#X connect 44 0 58 0;
#X connect 45 0 50 0;
#X connect 45 1 1 0;
#X connect 47 0 48 0;
#X connect 48 0 49 0;
#X connect 48 1 51 0;
#X connect 50 0 56 0;
#X connect 50 0 64 0;
#X connect 50 0 67 0;
#X connect 51 0 52 0;
#X connect 51 1 53 0;
#X connect 52 0 53 0;
#X connect 53 0 50 0;
#X connect 54 0 31 0;
#X connect 56 0 55 0;
#X connect 57 0 2 0;
#X connect 58 0 24 0;
#X connect 58 1 45 0;
#X connect 58 1 27 0;
#X connect 58 2 57 1;
#X connect 62 0 9 0;
#X connect 63 0 29 0;
#X connect 63 0 40 0;
#X connect 63 0 59 0;
#X connect 64 0 66 0;
#X connect 65 0 3 0;
#X connect 66 0 2 0;
#X coords 0 -1 1 1 170 40 1 10 10;
